<svg width="64" height="64" viewBox="0 0 64 64" fill="none" xmlns="http://www.w3.org/2000/svg">
<rect width="64" height="64" rx="32" fill="#14263B"/>
<path d="M29.8574 39.4355C27.8418 40.4785 25.3926 41 22.5098 41H13.8262L14.0723 39.6992L17.0957 38.7324V21.6113L14.0723 21.084L14.2305 19.748C17.875 19.1738 20.8809 18.8867 23.248 18.8867C26.3652 18.8867 28.8613 19.3789 30.7363 20.3633C32.623 21.3359 33.959 22.6133 34.7441 24.1953C35.5293 25.7773 35.9219 27.5527 35.9219 29.5215C35.9219 31.5957 35.4121 33.5059 34.3926 35.252C33.3848 36.9863 31.873 38.3809 29.8574 39.4355ZM22.5977 20.6973C21.6367 20.6973 20.9219 20.7207 20.4531 20.7676V39.1719H23.002C25.0059 39.1719 26.6992 38.7852 28.082 38.0117C29.4648 37.2383 30.4961 36.1953 31.1758 34.8828C31.8672 33.5703 32.2129 32.1055 32.2129 30.4883C32.2129 28.6484 31.8496 26.9902 31.123 25.5137C30.4082 24.0254 29.3301 22.8535 27.8887 21.998C26.4473 21.1309 24.6836 20.6973 22.5977 20.6973Z" fill="white"/>
<path d="M28.456 57.936C26.856 57.936 25.4693 57.6053 24.296 56.944C23.1013 56.2827 22.184 55.408 21.544 54.32C20.904 53.2533 20.584 52.1227 20.584 50.928C20.584 49.5413 20.9467 48.3253 21.672 47.28C22.3973 46.2133 23.3573 45.3173 24.552 44.592C25.7467 43.8453 27.048 43.2907 28.456 42.928C29.8853 42.544 31.2933 42.352 32.68 42.352C33.4267 42.352 34.2693 42.448 35.208 42.64C36.1467 42.8107 37.0213 43.0987 37.832 43.504C38.664 43.9093 39.272 44.4533 39.656 45.136C39.72 45.2213 39.72 45.392 39.656 45.648C39.592 45.8827 39.4853 46.1067 39.336 46.32C39.1867 46.512 38.984 46.608 38.728 46.608C38.4933 46.608 38.2267 46.48 37.928 46.224C37.352 45.712 36.7333 45.36 36.072 45.168C35.432 44.976 34.7387 44.88 33.992 44.88C32.84 44.88 31.688 45.008 30.536 45.264C29.384 45.52 28.3173 45.904 27.336 46.416C26.376 46.928 25.608 47.568 25.032 48.336C24.456 49.0827 24.168 49.9573 24.168 50.96C24.168 51.6853 24.36 52.368 24.744 53.008C25.128 53.648 25.672 54.16 26.376 54.544C27.08 54.928 27.9227 55.12 28.904 55.12C30.2053 55.12 31.7093 54.6827 33.416 53.808C35.1227 52.9547 36.9573 51.472 38.92 49.36C41.6507 46.4373 44.168 43.3227 46.472 40.016C48.776 36.688 51.016 33.3493 53.192 30C52.5307 29.6373 51.7093 29.3173 50.728 29.04C49.7467 28.7413 48.7867 28.592 47.848 28.592C46.3333 28.592 45.16 29.04 44.328 29.936C43.5173 30.832 43.112 32.0373 43.112 33.552C43.112 33.9573 43.0053 34.2667 42.792 34.48C42.6 34.6933 42.3653 34.8 42.088 34.8C41.7893 34.8 41.5013 34.64 41.224 34.32C40.968 34 40.84 33.4773 40.84 32.752C40.84 31.728 41.0213 30.8 41.384 29.968C41.7467 29.136 42.1413 28.464 42.568 27.952C43.2507 27.1627 44.1573 26.5973 45.288 26.256C46.4187 25.9147 47.624 25.744 48.904 25.744C50.0987 25.744 51.2827 25.872 52.456 26.128C53.6293 26.3627 54.696 26.704 55.656 27.152C56.6373 27.5787 57.416 28.0693 57.992 28.624C58.5893 29.1787 58.888 29.776 58.888 30.416C58.888 30.5013 58.8773 30.5867 58.856 30.672C58.856 30.736 58.8453 30.8107 58.824 30.896C58.7173 31.3013 58.5467 31.5893 58.312 31.76C58.0773 31.9093 57.8107 31.984 57.512 31.984C57.1707 31.984 56.8187 31.9093 56.456 31.76C56.0933 31.5893 55.7733 31.3973 55.496 31.184C55.4107 31.12 55.368 31.0453 55.368 30.96C55.368 30.832 55.4213 30.7253 55.528 30.64C55.656 30.5547 55.7733 30.5653 55.88 30.672C56.072 30.8213 56.3173 30.9813 56.616 31.152C56.9147 31.3013 57.2027 31.376 57.48 31.376C57.6507 31.376 57.8 31.3333 57.928 31.248C58.056 31.1413 58.152 30.9707 58.216 30.736C58.2373 30.6933 58.248 30.64 58.248 30.576C58.248 30.512 58.248 30.4587 58.248 30.416C58.248 29.904 57.9707 29.4133 57.416 28.944C56.8613 28.4533 56.1147 28.016 55.176 27.632C54.2587 27.2267 53.2453 26.9173 52.136 26.704C51.0267 26.4693 49.9173 26.352 48.808 26.352C47.6347 26.352 46.536 26.512 45.512 26.832C44.5093 27.1307 43.6987 27.632 43.08 28.336C42.6747 28.8053 42.3013 29.424 41.96 30.192C41.64 30.96 41.48 31.8133 41.48 32.752C41.48 33.2427 41.544 33.6053 41.672 33.84C41.8 34.0747 41.9387 34.192 42.088 34.192C42.344 34.192 42.472 33.9787 42.472 33.552C42.472 31.888 42.9413 30.544 43.88 29.52C44.8187 28.4747 46.1413 27.952 47.848 27.952C48.936 27.952 50.024 28.1227 51.112 28.464C52.2213 28.8053 53.1173 29.1787 53.8 29.584C53.992 29.6907 54.024 29.8507 53.896 30.064C53.7253 30.32 53.4053 30.8213 52.936 31.568C52.4667 32.2933 51.8693 33.2 51.144 34.288C50.44 35.3547 49.64 36.5387 48.744 37.84C47.8693 39.12 46.9093 40.464 45.864 41.872C44.84 43.2587 43.7733 44.6347 42.664 46C41.576 47.344 40.4773 48.6133 39.368 49.808C37.3413 52.0053 35.432 53.5413 33.64 54.416C31.848 55.312 30.2587 55.76 28.872 55.76C27.784 55.76 26.8347 55.536 26.024 55.088C25.2347 54.64 24.6267 54.0427 24.2 53.296C23.752 52.5707 23.528 51.792 23.528 50.96C23.528 49.8293 23.8373 48.848 24.456 48.016C25.0747 47.184 25.896 46.4907 26.92 45.936C27.9653 45.3813 29.1067 44.9653 30.344 44.688C31.5813 44.4107 32.808 44.272 34.024 44.272C34.8347 44.272 35.6027 44.3787 36.328 44.592C37.0533 44.784 37.736 45.168 38.376 45.744C38.504 45.872 38.5893 45.9467 38.632 45.968C38.7173 45.968 38.8027 45.904 38.888 45.776C38.9733 45.648 39.0267 45.5413 39.048 45.456L39.08 45.424C38.8027 44.9547 38.3973 44.5707 37.864 44.272C37.352 43.952 36.7867 43.7067 36.168 43.536C35.5493 43.344 34.9413 43.216 34.344 43.152C33.768 43.0667 33.2667 43.024 32.84 43.024C31.5387 43.024 30.2053 43.1947 28.84 43.536C27.496 43.8773 26.248 44.3893 25.096 45.072C23.944 45.7333 23.016 46.5547 22.312 47.536C21.5867 48.5173 21.224 49.6587 21.224 50.96C21.224 52.048 21.5227 53.072 22.12 54.032C22.696 54.992 23.528 55.7707 24.616 56.368C25.704 56.9653 26.984 57.264 28.456 57.264C30.0987 57.264 31.944 56.8053 33.992 55.888C36.04 54.9707 38.2267 53.4133 40.552 51.216C42.2373 49.616 43.9013 47.792 45.544 45.744C47.1867 43.6747 48.776 41.4773 50.312 39.152C51.848 36.8267 53.288 34.4907 54.632 32.144C54.696 32.0373 54.792 31.984 54.92 31.984C55.0267 31.984 55.1227 32.0373 55.208 32.144C55.2933 32.2293 55.2933 32.336 55.208 32.464C53.864 34.8107 52.4133 37.1573 50.856 39.504C49.32 41.8293 47.72 44.0373 46.056 46.128C44.392 48.1973 42.7067 50.0427 41 51.664C38.6107 53.9253 36.3493 55.536 34.216 56.496C32.0827 57.456 30.1627 57.936 28.456 57.936Z" fill="white"/>
</svg>
