<svg width="48" height="48" viewBox="0 0 48 48" fill="none" xmlns="http://www.w3.org/2000/svg">
<path d="M30.8617 12.692L30.8612 12.692C30.5751 12.6911 30.292 12.6339 30.028 12.5236C29.7641 12.4133 29.5244 12.252 29.3227 12.0491C29.1211 11.8462 28.9613 11.6055 28.8527 11.3408C28.744 11.0762 28.6886 10.7927 28.6895 10.5066C28.6904 10.2205 28.7476 9.93741 28.8579 9.67344C28.9682 9.40946 29.1294 9.1698 29.3324 8.96813L28.4513 8.08149L29.3324 8.96813C29.5353 8.76646 29.776 8.60674 30.0406 8.49808C30.3053 8.38943 30.5887 8.33396 30.8748 8.33486L30.8748 8.33493L30.8887 8.33482C31.1719 8.33256 31.4527 8.38678 31.7147 8.49431C31.9767 8.60185 32.2146 8.76053 32.4145 8.96109L33.2976 8.08071L32.4145 8.96109C32.6144 9.16164 32.7724 9.40005 32.8791 9.66237L33.9798 9.21461L32.8791 9.66237C32.9858 9.92468 33.0391 10.2056 33.036 10.4888L33.0358 10.4999L33.0359 10.511C33.0378 10.7973 32.9829 11.0812 32.8744 11.3463C32.7659 11.6113 32.6059 11.8522 32.4037 12.055C32.2015 12.2578 31.9611 12.4185 31.6965 12.5279C31.4318 12.6372 31.148 12.693 30.8617 12.692Z" fill="#EC6464" stroke="#EC6464" stroke-width="2.5"/>
<mask id="path-2-inside-1_71_443" fill="white">
<path d="M35.9513 20.7991H31.2628C31.1859 20.7991 31.1103 20.7784 31.0442 20.7392C30.978 20.7 30.9236 20.6437 30.8867 20.5762L27.486 14.3437C27.2464 13.8805 26.9011 13.4803 26.478 13.1754C26.055 12.8705 25.5661 12.6695 25.0509 12.5886C24.5358 12.5078 24.0088 12.5493 23.5127 12.71C23.0166 12.8706 22.5653 13.1459 22.1953 13.5134L14.7103 21.0562C14.0815 21.698 13.7245 22.5577 13.7139 23.4562C13.7139 25.3205 15.0639 25.9848 15.696 26.3598C18.7496 28.119 20.8999 29.4058 22.0796 30.1205C22.1423 30.1586 22.1941 30.2123 22.2302 30.2763C22.2662 30.3402 22.2852 30.4124 22.2853 30.4858V37.8915C22.2853 38.814 22.9946 39.6058 23.9171 39.6519C24.1487 39.663 24.3801 39.6271 24.5975 39.5462C24.8148 39.4654 25.0134 39.3412 25.1814 39.1814C25.3494 39.0215 25.4831 38.8293 25.5747 38.6162C25.6662 38.4032 25.7135 38.1738 25.7138 37.9419V28.7276C25.714 28.4555 25.6494 28.1872 25.5253 27.945C25.4012 27.7028 25.2212 27.4936 25.0003 27.3348L21.036 24.4837C20.9862 24.4481 20.9447 24.4022 20.9141 24.3492C20.8835 24.2962 20.8647 24.2373 20.8588 24.1764C20.8529 24.1155 20.8601 24.054 20.88 23.9962C20.8998 23.9383 20.9318 23.8853 20.9739 23.8408L25.4738 19.0419C25.52 18.9925 25.5771 18.9548 25.6407 18.9317C25.7042 18.9086 25.7722 18.9009 25.8393 18.9092C25.9064 18.9174 25.9706 18.9414 26.0266 18.9792C26.0826 19.017 26.1289 19.0675 26.1617 19.1266L28.4996 23.3458C28.6481 23.6133 28.8656 23.8361 29.1294 23.9912C29.3931 24.1462 29.6936 24.2279 29.9996 24.2276H35.9995C36.2318 24.2279 36.4616 24.181 36.6752 24.0897C36.8888 23.9984 37.0815 23.8647 37.2418 23.6967C37.4022 23.5287 37.5267 23.3298 37.6078 23.1122C37.6889 22.8946 37.725 22.6628 37.7138 22.4308C37.6688 21.5083 36.8738 20.7991 35.9513 20.7991Z"/>
</mask>
<path d="M31.2628 20.7991V18.2991H31.2622L31.2628 20.7991ZM30.8867 20.5762L28.6921 21.7736L28.6935 21.7762L30.8867 20.5762ZM27.486 14.3437L25.2655 15.4924L25.2782 15.5169L25.2914 15.5412L27.486 14.3437ZM22.1953 13.5134L20.4335 11.7396L20.4271 11.746L20.4207 11.7524L22.1953 13.5134ZM14.7103 21.0562L12.9357 19.2953L12.9301 19.3009L12.9245 19.3066L14.7103 21.0562ZM13.7139 23.4562L11.214 23.4265L11.2139 23.4414V23.4562H13.7139ZM15.696 26.3598L14.4205 28.5099L14.4342 28.518L14.448 28.526L15.696 26.3598ZM22.0796 30.1205L23.3796 27.985L23.3749 27.9822L22.0796 30.1205ZM22.2853 30.4858H24.7853L24.7853 30.4817L22.2853 30.4858ZM23.9171 39.6519L23.7924 42.1488L23.7967 42.149L23.9171 39.6519ZM25.7138 37.9419L28.2138 37.9452V37.9419H25.7138ZM25.7138 28.7276L23.2138 28.7262V28.7276H25.7138ZM25.0003 27.3348L23.5406 29.3644L23.5409 29.3646L25.0003 27.3348ZM21.036 24.4837L22.4957 22.4541L22.4908 22.4505L21.036 24.4837ZM20.9739 23.8408L22.7911 25.5577L22.7975 25.5509L20.9739 23.8408ZM25.4738 19.0419L27.2975 20.752L27.3004 20.7488L25.4738 19.0419ZM26.1617 19.1266L28.3485 17.9149L28.3476 17.9134L26.1617 19.1266ZM28.4996 23.3458L26.3128 24.5575L26.3141 24.5599L28.4996 23.3458ZM29.9996 24.2276V21.7276L29.9975 21.7276L29.9996 24.2276ZM35.9995 24.2276L36.0024 21.7276H35.9995V24.2276ZM37.7138 22.4308L40.2109 22.3105L40.2109 22.309L37.7138 22.4308ZM35.9513 18.2991H31.2628V23.2991H35.9513V18.2991ZM31.2622 18.2991C31.634 18.299 31.9989 18.3989 32.3187 18.5885L29.7697 22.8899C30.2218 23.1578 30.7377 23.2992 31.2633 23.2991L31.2622 18.2991ZM32.3187 18.5885C32.6385 18.778 32.9014 19.05 33.0799 19.3762L28.6935 21.7762C28.9458 22.2373 29.3175 22.622 29.7697 22.8899L32.3187 18.5885ZM33.0813 19.3788L29.6806 13.1463L25.2914 15.5412L28.6921 21.7736L33.0813 19.3788ZM29.7064 13.195C29.2865 12.3832 28.6813 11.6817 27.9398 11.1473L25.0162 15.2035C25.1209 15.2789 25.2063 15.3779 25.2655 15.4924L29.7064 13.195ZM27.9398 11.1473C27.1984 10.6129 26.3415 10.2606 25.4386 10.1188L24.6633 15.0584C24.7907 15.0784 24.9116 15.1281 25.0162 15.2035L27.9398 11.1473ZM25.4386 10.1188C24.5356 9.97713 23.612 10.05 22.7425 10.3316L24.2829 15.0884C24.4056 15.0487 24.5359 15.0384 24.6633 15.0584L25.4386 10.1188ZM22.7425 10.3316C21.873 10.6132 21.0819 11.0955 20.4335 11.7396L23.9571 15.2871C24.0486 15.1962 24.1602 15.1281 24.2829 15.0884L22.7425 10.3316ZM20.4207 11.7524L12.9357 19.2953L16.4849 22.8171L23.9698 15.2743L20.4207 11.7524ZM12.9245 19.3066C11.8451 20.4084 11.2324 21.8842 11.214 23.4265L16.2137 23.4859C16.2167 23.2313 16.3179 22.9877 16.4961 22.8058L12.9245 19.3066ZM11.2139 23.4562C11.2139 26.908 13.9501 28.2309 14.4205 28.5099L16.9715 24.2096C16.7317 24.0674 16.6501 24.0261 16.5097 23.9322C16.3974 23.857 16.333 23.8008 16.295 23.7601C16.2622 23.725 16.2516 23.7044 16.2453 23.6892C16.2402 23.6767 16.2139 23.6116 16.2139 23.4562H11.2139ZM14.448 28.526C17.4844 30.2754 19.619 31.5528 20.7842 32.2587L23.3749 27.9822C22.1809 27.2589 20.0147 25.9627 16.944 24.1936L14.448 28.526ZM20.7796 32.2559C20.4765 32.0714 20.2258 31.8121 20.0517 31.5028L24.4086 29.0497C24.1624 28.6125 23.8081 28.2459 23.3796 27.9851L20.7796 32.2559ZM20.0517 31.5028C19.8776 31.1936 19.7859 30.8449 19.7853 30.49L24.7853 30.4817C24.7844 29.98 24.6547 29.4869 24.4086 29.0497L20.0517 31.5028ZM19.7853 30.4858V37.8915H24.7853V30.4858H19.7853ZM19.7853 37.8915C19.7853 40.0619 21.4566 42.0321 23.7924 42.1488L24.0418 37.155C24.5325 37.1795 24.7853 37.5661 24.7853 37.8915H19.7853ZM23.7967 42.149C24.3661 42.1764 24.9351 42.0881 25.4694 41.8892L23.7255 37.2032C23.8251 37.1661 23.9312 37.1497 24.0374 37.1548L23.7967 42.149ZM25.4694 41.8892C26.0036 41.6904 26.4919 41.3853 26.9049 40.9923L23.4579 37.3704C23.5349 37.2971 23.6259 37.2403 23.7255 37.2032L25.4694 41.8892ZM26.9049 40.9923C27.3178 40.5994 27.6467 40.1267 27.8717 39.603L23.2776 37.6295C23.3196 37.5318 23.3809 37.4437 23.4579 37.3704L26.9049 40.9923ZM27.8717 39.603C28.0967 39.0792 28.2131 38.5153 28.2138 37.9452L23.2138 37.9385C23.214 37.8323 23.2357 37.7271 23.2776 37.6295L27.8717 39.603ZM28.2138 37.9419V28.7276H23.2138V37.9419H28.2138ZM28.2138 28.729C28.2142 28.06 28.0553 27.4005 27.7503 26.8051L23.3003 29.0849C23.2434 28.9739 23.2138 28.8509 23.2138 28.7262L28.2138 28.729ZM27.7503 26.8051C27.4452 26.2097 27.0028 25.6955 26.4597 25.3049L23.5409 29.3646C23.4396 29.2918 23.3571 29.1959 23.3003 29.0849L27.7503 26.8051ZM26.46 25.3051L22.4957 22.4541L19.5763 26.5133L23.5406 29.3644L26.46 25.3051ZM22.4908 22.4505C22.7313 22.6226 22.9321 22.8442 23.0799 23.1004L18.7484 25.598C18.9572 25.9602 19.2412 26.2735 19.5812 26.5168L22.4908 22.4505ZM23.0799 23.1004C23.2276 23.3566 23.3187 23.6415 23.3472 23.9358L18.3704 24.4169C18.4106 24.8331 18.5395 25.2358 18.7484 25.598L23.0799 23.1004ZM23.3472 23.9358C23.3757 24.2302 23.3408 24.5272 23.2448 24.807L18.5151 23.1853C18.3795 23.5808 18.3302 24.0008 18.3704 24.4169L23.3472 23.9358ZM23.2448 24.807C23.1489 25.0867 22.9942 25.3427 22.7911 25.5577L19.1566 22.124C18.8695 22.4279 18.6507 22.7898 18.5151 23.1853L23.2448 24.807ZM22.7975 25.5509L27.2975 20.752L23.6502 17.3319L19.1502 22.1308L22.7975 25.5509ZM27.3004 20.7488C27.0775 20.9874 26.8012 21.17 26.4942 21.2815L24.7872 16.5819C24.3531 16.7396 23.9625 16.9977 23.6473 17.335L27.3004 20.7488ZM26.4942 21.2815C26.1871 21.393 25.8581 21.4303 25.534 21.3905L26.1446 16.4279C25.6864 16.3715 25.2212 16.4243 24.7872 16.5819L26.4942 21.2815ZM25.534 21.3905C25.2098 21.3506 24.8997 21.2346 24.6289 21.052L27.4243 16.9064C27.0414 16.6482 26.6029 16.4843 26.1446 16.4279L25.534 21.3905ZM24.6289 21.052C24.3581 20.8694 24.1343 20.6253 23.9758 20.3397L28.3476 17.9134C28.1235 17.5097 27.8072 17.1646 27.4243 16.9064L24.6289 21.052ZM23.9749 20.3382L26.3128 24.5575L30.6863 22.1342L28.3485 17.9149L23.9749 20.3382ZM26.3141 24.5599C26.6794 25.2174 27.214 25.7652 27.8624 26.1464L30.3963 21.836C30.5172 21.9071 30.6169 22.0092 30.685 22.1318L26.3141 24.5599ZM27.8624 26.1464C28.5108 26.5276 29.2495 26.7282 30.0016 26.7276L29.9975 21.7276C30.1377 21.7275 30.2754 21.7649 30.3963 21.836L27.8624 26.1464ZM29.9996 26.7276H35.9995V21.7276H29.9996V26.7276ZM35.9966 26.7276C36.5676 26.7283 37.1327 26.6129 37.6576 26.3886L35.6928 21.7908C35.7906 21.749 35.896 21.7275 36.0024 21.7276L35.9966 26.7276ZM37.6576 26.3886C38.1826 26.1642 38.6566 25.8355 39.0507 25.4225L35.433 21.971C35.5065 21.8939 35.5949 21.8327 35.6928 21.7908L37.6576 26.3886ZM39.0507 25.4225C39.4447 25.0094 39.7508 24.5206 39.9503 23.9856L35.2653 22.2388C35.3025 22.1391 35.3596 22.048 35.433 21.971L39.0507 25.4225ZM39.9503 23.9856C40.1497 23.4507 40.2384 22.8808 40.2109 22.3105L35.2167 22.5512C35.2116 22.4448 35.2281 22.3386 35.2653 22.2388L39.9503 23.9856ZM40.2109 22.309C40.0965 19.9648 38.1152 18.2991 35.9513 18.2991V23.2991C35.6325 23.2991 35.2411 23.0519 35.2168 22.5526L40.2109 22.309Z" fill="#EC6464" mask="url(#path-2-inside-1_71_443)"/>
<rect x="13.1704" y="2.4" width="12" height="12.0011" rx="1" transform="rotate(45 13.1704 2.4)" stroke="#EC6464" stroke-width="2.5"/>
<path d="M39 44.5848C43.1421 44.5848 46.5 41.2269 46.5 37.0848C46.5 32.9426 43.1421 29.5848 39 29.5848C34.8579 29.5848 31.5 32.9426 31.5 37.0848C31.5 41.2269 34.8579 44.5848 39 44.5848Z" stroke="#EC6464" stroke-width="2.5"/>
<path d="M9 44.5848C13.1421 44.5848 16.5 41.2269 16.5 37.0848C16.5 32.9426 13.1421 29.5848 9 29.5848C4.85786 29.5848 1.5 32.9426 1.5 37.0848C1.5 41.2269 4.85786 44.5848 9 44.5848Z" stroke="#EC6464" stroke-width="2.5"/>
</svg>
