<svg width="48" height="50" viewBox="0 0 48 50" fill="none" xmlns="http://www.w3.org/2000/svg">
<path d="M22.6213 2.46087C23.4848 2.0149 24.5109 2.0149 25.3744 2.46087L35.0978 7.48242L44.5288 12.5351C45.4954 13.0529 46.1024 14.0568 46.1119 15.1533L46.1978 24.9999L46.1119 34.8466C46.1024 35.9431 45.4954 36.947 44.5288 37.4648L35.0978 42.5175L25.3744 47.539C24.5109 47.985 23.4848 47.985 22.6213 47.539L12.8979 42.5175L3.4669 37.4648C2.50035 36.947 1.89332 35.9431 1.88376 34.8466L1.79785 24.9999L1.88376 15.1533C1.89332 14.0568 2.50035 13.0529 3.4669 12.5351L12.8979 7.48242L22.6213 2.46087Z" stroke="#EC6464" stroke-width="2.5"/>
<path d="M24.2539 46.2999V25.2999M24.2539 25.2999L43.7539 14.7999M24.2539 25.2999L3.25391 14.7999" stroke="#EC6464" stroke-width="2.5"/>
<path d="M13.5 7L36 19V28" stroke="#EC6464" stroke-width="2.5" stroke-linecap="round"/>
</svg>
