<svg width="48" height="48" viewBox="0 0 48 48" fill="none" xmlns="http://www.w3.org/2000/svg">
<path d="M25.115 1.92141C25.115 1.92141 23.9 2.54147 22.6862 3.4546C22.0794 3.91116 21.4651 4.44085 20.9795 5.05088C20.4939 5.66082 20.0981 6.38513 20.1583 7.23207C20.2252 8.17332 20.8633 8.87428 21.5439 9.29457C22.2244 9.71475 22.9972 9.969 23.725 10.2198C24.4529 10.4706 25.1359 10.7179 25.5692 10.9855C26.0026 11.2531 26.1366 11.4264 26.1583 11.7321C26.1608 11.7668 26.1191 11.952 25.9133 12.2105C25.7075 12.4689 25.3765 12.7664 25.0302 13.027C24.3375 13.548 23.615 13.9214 23.615 13.9214L24.3847 15.4229C24.3847 15.4229 25.2121 15.0016 26.0446 14.3753C26.4609 14.0622 26.8861 13.6978 27.2335 13.2616C27.5808 12.8252 27.8891 12.2828 27.8414 11.6123C27.7745 10.671 27.1364 9.97003 26.4558 9.54975C25.7752 9.12947 25.0025 8.87532 24.2747 8.62453C23.5469 8.37375 22.8638 8.12644 22.4305 7.85878C21.9971 7.59113 21.8631 7.41788 21.8414 7.11225C21.8264 6.90113 21.9555 6.534 22.2995 6.10191C22.6436 5.66972 23.1637 5.20669 23.7007 4.80272C24.7745 3.99488 25.8847 3.42291 25.8847 3.42291L25.115 1.92141ZM13.115 6.42141C13.115 6.42141 11.9 7.04147 10.6862 7.9546C10.0794 8.41116 9.46513 8.94085 8.97951 9.55088C8.49388 10.1608 8.09807 10.8851 8.15826 11.7321C8.22519 12.6733 8.86326 13.3743 9.54388 13.7946C10.2244 14.2148 10.9972 14.469 11.725 14.7198C12.4529 14.9706 13.1359 15.2179 13.5692 15.4855C14.0026 15.7531 14.1366 15.9264 14.1583 16.2321C14.1608 16.2668 14.1191 16.452 13.9133 16.7105C13.7075 16.9689 13.3765 17.2664 13.0302 17.527C12.3375 18.048 11.615 18.4214 11.615 18.4214L12.3847 19.9229C12.3847 19.9229 13.2121 19.5016 14.0446 18.8753C14.4609 18.5622 14.8861 18.1978 15.2335 17.7615C15.5808 17.3252 15.8891 16.7828 15.8414 16.1123C15.7745 15.171 15.1364 14.47 14.4558 14.0498C13.7752 13.6295 13.0025 13.3753 12.2747 13.1245C11.5469 12.8738 10.8638 12.6264 10.4305 12.3588C9.99707 12.0911 9.8631 11.9179 9.84144 11.6123C9.82644 11.4011 9.95554 11.034 10.2995 10.6019C10.6436 10.1697 11.1637 9.70669 11.7007 9.30272C12.7745 8.49488 13.8847 7.92291 13.8847 7.92291L13.115 6.42141ZM37.115 6.42141C37.115 6.42141 35.9 7.04147 34.6862 7.9546C34.0794 8.41116 33.4651 8.94085 32.9795 9.55088C32.4939 10.1608 32.0981 10.8851 32.1583 11.7321C32.2252 12.6733 32.8633 13.3743 33.5439 13.7946C34.2244 14.2148 34.9972 14.469 35.725 14.7198C36.4529 14.9706 37.1359 15.2179 37.5692 15.4855C38.0026 15.7531 38.1366 15.9264 38.1583 16.2321C38.1608 16.2668 38.1191 16.452 37.9133 16.7105C37.7075 16.9689 37.3765 17.2664 37.0302 17.527C36.3375 18.048 35.615 18.4214 35.615 18.4214L36.3847 19.9229C36.3847 19.9229 37.2121 19.5016 38.0446 18.8753C38.4609 18.5622 38.8861 18.1978 39.2335 17.7615C39.5808 17.3252 39.8891 16.7828 39.8414 16.1123C39.7745 15.171 39.1364 14.47 38.4558 14.0498C37.7752 13.6295 37.0025 13.3753 36.2747 13.1245C35.5468 12.8738 34.8638 12.6264 34.4305 12.3588C33.9971 12.0911 33.8631 11.9179 33.8414 11.6123C33.8264 11.4011 33.9555 11.034 34.2995 10.6019C34.6436 10.1697 35.1637 9.70669 35.7007 9.30272C36.7745 8.49488 37.8847 7.92291 37.8847 7.92291L37.115 6.42141ZM23.9999 17.5782C22.7811 17.5782 21.9569 18.1327 21.3269 19.0777C21.066 19.4689 20.8556 19.9308 20.6973 20.4338C21.7586 20.2831 22.8601 20.2036 23.9999 20.2036C25.1396 20.2036 26.241 20.2831 27.3024 20.4338C27.1441 19.9308 26.9337 19.4689 26.6728 19.0777C26.0429 18.1327 25.2186 17.5782 23.9999 17.5782ZM23.9999 21.8907C12.8036 21.8907 5.8356 29.9569 5.38673 38.2036H42.613C42.164 29.9569 35.196 21.8906 23.9999 21.8906V21.8907ZM2.09638 38.6381L0.90332 39.8312C2.60207 41.53 4.49985 41.5782 5.99985 41.5782H41.9998C43.4998 41.5782 45.3975 41.53 47.0964 39.8312L45.9033 38.6381C44.6021 39.9393 43.4998 39.8911 41.9998 39.8911H5.99985C4.49985 39.8911 3.39754 39.9393 2.09638 38.6381ZM10.5762 43.2657L12.4514 46.0786H35.5483L37.4235 43.2657H10.5762Z" fill="#EC6464"/>
</svg>
