<svg width="48" height="48" viewBox="0 0 48 48" fill="none" xmlns="http://www.w3.org/2000/svg">
<path d="M16.7598 24L21.5798 28.84L31.2398 19.16" stroke="#EC6464" stroke-width="2.5" stroke-linecap="round" stroke-linejoin="round"/>
<path d="M21.4998 4.9C22.8798 3.72 25.1398 3.72 26.5398 4.9L29.6998 7.62C30.2998 8.14 31.4198 8.56 32.2198 8.56H35.6198C37.7398 8.56 39.4798 10.3 39.4798 12.42V15.82C39.4798 16.6 39.8998 17.74 40.4198 18.34L43.1398 21.5C44.3198 22.88 44.3198 25.14 43.1398 26.54L40.4198 29.7C39.8998 30.3 39.4798 31.42 39.4798 32.22V35.62C39.4798 37.74 37.7398 39.48 35.6198 39.48H32.2198C31.4398 39.48 30.2998 39.9 29.6998 40.42L26.5398 43.14C25.1598 44.32 22.8998 44.32 21.4998 43.14L18.3398 40.42C17.7398 39.9 16.6198 39.48 15.8198 39.48H12.3598C10.2398 39.48 8.49977 37.74 8.49977 35.62V32.2C8.49977 31.42 8.07977 30.3 7.57977 29.7L4.87977 26.52C3.71977 25.14 3.71977 22.9 4.87977 21.52L7.57977 18.34C8.07977 17.74 8.49977 16.62 8.49977 15.84V12.4C8.49977 10.28 10.2398 8.54 12.3598 8.54H15.8198C16.5998 8.54 17.7398 8.12 18.3398 7.6L21.4998 4.9Z" stroke="#EC6464" stroke-width="2.5" stroke-linecap="round" stroke-linejoin="round"/>
</svg>
